<svg width="212" height="195" viewBox="0 0 212 195" fill="none" xmlns="http://www.w3.org/2000/svg">
<path d="M100.068 194.304C93.5977 194.304 87.1177 193.784 80.6477 192.744C65.0877 190.244 50.3877 184.844 36.9677 176.714C23.0677 168.294 11.1477 157.284 1.54769 144.004C-1.09231 140.344 -0.272306 135.244 3.37769 132.604C7.03769 129.964 12.1377 130.784 14.7777 134.434C23.0877 145.934 33.3977 155.454 45.4177 162.744C57.0377 169.784 69.7577 174.454 83.2377 176.624C96.7177 178.794 110.258 178.354 123.498 175.314C137.198 172.164 149.978 166.354 161.478 158.044C170.498 151.524 177.968 143.434 183.688 134.004C189.208 124.894 192.868 114.914 194.578 104.334C196.278 93.7641 195.928 83.1341 193.548 72.7541C191.078 62.0041 186.528 51.9841 180.008 42.9641C169.948 29.0441 155.068 19.8741 138.108 17.1441C121.148 14.4141 104.148 18.4541 90.2277 28.5141C79.4477 36.3041 72.3377 47.8341 70.2277 60.9641C68.1177 74.1041 71.2377 87.2741 79.0377 98.0541C91.3777 115.134 115.318 118.984 132.398 106.644C145.328 97.2941 148.248 79.1741 138.898 66.2441C131.948 56.6241 118.468 54.4641 108.858 61.4141C105.488 63.8541 103.268 67.4541 102.598 71.5641C101.938 75.6741 102.918 79.7941 105.358 83.1641C106.728 85.0541 112.078 90.9841 123.698 87.9641C128.068 86.8341 132.518 89.4541 133.658 93.8141C134.788 98.1841 132.168 102.634 127.808 103.774C124.348 104.674 120.928 105.104 117.628 105.104C107.198 105.104 97.9177 100.734 92.1277 92.7241C87.1377 85.8141 85.1277 77.3741 86.4877 68.9641C87.8377 60.5441 92.3877 53.1641 99.2977 48.1741C107.488 42.2541 117.498 39.8741 127.478 41.4841C137.458 43.0941 146.218 48.4841 152.138 56.6841C159.218 66.4841 162.068 78.4541 160.148 90.3941C158.228 102.334 151.768 112.804 141.968 119.894C130.158 128.424 115.738 131.854 101.348 129.544C86.9677 127.234 74.3377 119.454 65.8077 107.644C60.5777 100.414 56.9277 92.3641 54.9377 83.7341C53.0277 75.3941 52.7477 66.8741 54.1077 58.3941C55.4677 49.9141 58.4077 41.9141 62.8477 34.5941C67.4377 27.0141 73.4377 20.5241 80.6677 15.2941C89.4877 8.92407 99.2977 4.46407 109.818 2.04407C119.978 -0.285934 130.378 -0.625934 140.708 1.03407C151.048 2.69407 160.808 6.28407 169.718 11.6841C178.958 17.2841 186.868 24.5941 193.248 33.4141C201.058 44.2141 206.518 56.2241 209.478 69.1141C212.338 81.5541 212.748 94.2841 210.718 106.944C208.678 119.604 204.288 131.554 197.678 142.474C190.828 153.784 181.868 163.474 171.068 171.284C157.788 180.884 143.018 187.594 127.178 191.234C118.218 193.284 109.158 194.304 100.068 194.304Z" fill="#78A69F"/>
<path d="M120.218 83.1341C125.034 83.1341 128.938 79.23 128.938 74.4141C128.938 69.5982 125.034 65.6941 120.218 65.6941C115.402 65.6941 111.498 69.5982 111.498 74.4141C111.498 79.23 115.402 83.1341 120.218 83.1341Z" fill="#78A69F"/>
</svg>
